<?xml version="1.0" encoding="UTF-8"?>
<svg version="1.1" xmlns="http://www.w3.org/2000/svg" width="48" height="48">
<path d="M0 0 C15.84 0 31.68 0 48 0 C48 15.84 48 31.68 48 48 C32.16 48 16.32 48 0 48 C0 32.16 0 16.32 0 0 Z " fill="#363232" transform="translate(0,0)"/>
<path d="M0 0 C1.19044922 -0.00515625 2.38089844 -0.0103125 3.60742188 -0.015625 C4.85201172 -0.00015625 6.09660156 0.0153125 7.37890625 0.03125 C8.61962891 0.01578125 9.86035156 0.0003125 11.13867188 -0.015625 C12.9262793 -0.00789062 12.9262793 -0.00789062 14.75 0 C15.84111084 0.00451172 16.93222168 0.00902344 18.05639648 0.01367188 C21.65585627 0.65942416 22.82768419 1.5713504 24.94140625 4.53125 C25.75678594 8.4715677 25.54432098 12.45342776 25.50390625 16.46875 C25.53967773 18.09586914 25.53967773 18.09586914 25.57617188 19.75585938 C25.56760923 24.39966868 25.43055332 27.63156879 23.19140625 31.75 C18.06120987 34.56174225 13.12900466 34.21483915 7.37890625 34.09375 C6.24259766 34.10470703 5.10628906 34.11566406 3.93554688 34.12695312 C-4.33484406 34.05376382 -4.33484406 34.05376382 -7.3828125 31.85327148 C-9.46830153 28.96354448 -9.56124253 27.35335851 -9.5546875 23.8125 C-9.55533203 22.71550781 -9.55597656 21.61851563 -9.55664062 20.48828125 C-9.53666016 19.34746094 -9.51667969 18.20664062 -9.49609375 17.03125 C-9.50318359 15.89042969 -9.51027344 14.74960937 -9.51757812 13.57421875 C-9.45462919 5.33275029 -9.45462919 5.33275029 -7.91015625 2.20703125 C-5.28918839 -0.16511054 -3.50001122 0.01448744 0 0 Z " fill="#C82922" transform="translate(16.05859375,7.46875)"/>
<path d="M0 0 C3.32961021 0.55493503 5.30091917 1.49496853 8 3.5 C9.62371163 6.74742327 9.69420836 10.00225787 9 13.5 C6.4375 16.5625 6.4375 16.5625 3 18.5 C-1.30444539 18.64842915 -3.18423621 18.21117869 -6.4375 15.375 C-8.43514338 11.69933618 -8.66350721 9.62848931 -8 5.5 C-5.54597925 2.1076772 -4.16402963 0.69400494 0 0 Z " fill="#BD2A24" transform="translate(24,11.5)"/>
<path d="M0 0 C3.64355647 1.61935843 6.12645605 3.45012726 8 7 C8.41508447 11.5659292 8.00007696 14.87484127 6 19 C6.825 19.763125 7.65 20.52625 8.5 21.3125 C11 24 11 24 11 27 C7.75728494 26.4409112 6.06942576 25.5867822 4 23 C4 22.34 4 21.68 4 21 C3.26394531 21.10699219 2.52789063 21.21398437 1.76953125 21.32421875 C-6.15813766 22.29815958 -6.15813766 22.29815958 -10 20.9375 C-12.59377456 18.4247809 -13.81463301 16.42439352 -15 13 C-14.90680178 7.6877012 -13.69051529 4.80234908 -10 1 C-6.80657621 -0.59671189 -3.47454369 -0.37418163 0 0 Z M-9.875 4.0625 C-12.25040832 6.88209505 -12.25040832 6.88209505 -12.5625 10.5 C-11.89954133 14.62507614 -11.14674823 16.25668103 -8 19 C-4.64407137 20.33660145 -4.64407137 20.33660145 -1 20 C2.59524336 18.24009686 2.59524336 18.24009686 5 15 C5.7938795 11.93356467 5.51802719 10.26357132 5 7 C2.42749516 3.65574371 0.37251107 2.18300148 -3.8125 1.625 C-7.15103868 1.75709764 -7.15103868 1.75709764 -9.875 4.0625 Z " fill="#3D2A29" transform="translate(28,10)"/>
<path d="M0 0 C4.10410755 -0.05796132 8.20811016 -0.09358313 12.3125 -0.125 C13.47974609 -0.14175781 14.64699219 -0.15851562 15.84960938 -0.17578125 C16.96787109 -0.18222656 18.08613281 -0.18867187 19.23828125 -0.1953125 C20.26993408 -0.20578613 21.30158691 -0.21625977 22.36450195 -0.22705078 C25 0 25 0 28 2 C28.34057617 4.43017578 28.34057617 4.43017578 28.29296875 7.4453125 C28.28330078 8.52167969 28.27363281 9.59804688 28.26367188 10.70703125 C28.23853516 11.83496094 28.21339844 12.96289062 28.1875 14.125 C28.16719727 15.82849609 28.16719727 15.82849609 28.14648438 17.56640625 C28.11104319 20.37807387 28.06163517 23.18880417 28 26 C25.1394109 24.64062915 23.14072301 23.35479531 21 21 C21.33 20.319375 21.66 19.63875 22 18.9375 C23.57980049 14.29683607 23.75845529 10.70652441 21.75 6.1875 C17.37360443 2.70627625 12.4414081 2.61011877 7 2 C5.58263032 1.79650452 4.16578401 1.58924952 2.75 1.375 C1.8425 1.25125 0.935 1.1275 0 1 C0 0.67 0 0.34 0 0 Z " fill="#DD3129" transform="translate(12,8)"/>
<path d="M0 0 C0.66 0 1.32 0 2 0 C2 3.63 2 7.26 2 11 C-0.31 10.01 -2.62 9.02 -5 8 C-5 9.32 -5 10.64 -5 12 C-5.66 12 -6.32 12 -7 12 C-8.6875 9.75 -8.6875 9.75 -10 7 C-9.58203125 4.828125 -9.58203125 4.828125 -9 3 C-8.43410156 2.86722656 -7.86820313 2.73445313 -7.28515625 2.59765625 C-6.18494141 2.33275391 -6.18494141 2.33275391 -5.0625 2.0625 C-4.33160156 1.88847656 -3.60070312 1.71445312 -2.84765625 1.53515625 C-1.00030102 1.16112431 -1.00030102 1.16112431 0 0 Z " fill="#F3E4E3" transform="translate(27,15)"/>
<path d="M0 0 C0.845625 0.845625 1.69125 1.69125 2.5625 2.5625 C5.32322862 4.87182987 5.83495922 5 9.6875 5 C12.79372639 4.06227128 14.10947915 3.5577635 16 1 C16.99 1.33 17.98 1.66 19 2 C19 3.32 19 4.64 19 6 C20.31266518 7.35368596 21.64567325 8.68799596 23 10 C23 10.99 23 11.98 23 13 C19.75728494 12.4409112 18.06942576 11.5867822 16 9 C16 8.34 16 7.68 16 7 C15.26394531 7.10699219 14.52789062 7.21398437 13.76953125 7.32421875 C5.8440307 8.29789319 5.8440307 8.29789319 1.8125 6.875 C0 5 0 5 -0.3125 2.3125 C-0.209375 1.549375 -0.10625 0.78625 0 0 Z " fill="#352322" transform="translate(16,24)"/>
<path d="M0 0 C3.32520944 0.55420157 5.32927766 1.45768291 8 3.5 C8 4.16 8 4.82 8 5.5 C7.34 5.5 6.68 5.5 6 5.5 C5.67 6.16 5.34 6.82 5 7.5 C5 6.18 5 4.86 5 3.5 C4.29875 3.974375 3.5975 4.44875 2.875 4.9375 C-0.16081337 6.58739857 -2.59168786 7.10368464 -6 7.5 C-6.33 9.15 -6.66 10.8 -7 12.5 C-7.33 12.5 -7.66 12.5 -8 12.5 C-8.4247346 8.1677071 -8.47048413 6.15037512 -5.875 2.5625 C-3 0.5 -3 0.5 0 0 Z " fill="#AE241D" transform="translate(24,11.5)"/>
<path d="M0 0 C0.33 0 0.66 0 1 0 C1.08714316 3.91652632 1.14043985 7.83280311 1.1875 11.75 C1.22520508 13.41675781 1.22520508 13.41675781 1.26367188 15.1171875 C1.27817383 16.72207031 1.27817383 16.72207031 1.29296875 18.359375 C1.31653442 19.83615723 1.31653442 19.83615723 1.34057617 21.34277344 C0.94609552 24.42057091 0.15156103 25.79384078 -2 28 C-2.66 28 -3.32 28 -4 28 C-5.38232443 26.37373596 -6.71937515 24.7074998 -8 23 C-7.67 22.34 -7.34 21.68 -7 21 C-6.566875 21.474375 -6.13375 21.94875 -5.6875 22.4375 C-3.97690387 24.23686957 -3.97690387 24.23686957 -1 25 C-0.67 16.75 -0.34 8.5 0 0 Z " fill="#BB2A23" transform="translate(40,12)"/>
<path d="M0 0 C1.65 0 3.3 0 5 0 C4.67 2.97 4.34 5.94 4 9 C3.34 9 2.68 9 2 9 C-1.11450382 4.84732824 -1.11450382 4.84732824 -0.6875 1.6875 C-0.460625 1.130625 -0.23375 0.57375 0 0 Z " fill="#EED5D4" transform="translate(18,18)"/>
<path d="M0 0 C1.17539996 0.92652701 2.34010577 1.86663387 3.5 2.8125 C4.1496875 3.33457031 4.799375 3.85664063 5.46875 4.39453125 C7 6 7 6 7 9 C3.85972637 8.66354211 2.94901705 7.94763914 0.6875 5.625 C0.130625 4.75875 -0.42625 3.8925 -1 3 C-0.67 2.01 -0.34 1.02 0 0 Z " fill="#272121" transform="translate(32,28)"/>
<path d="M0 0 C0.99 0 1.98 0 3 0 C3 2.64 3 5.28 3 8 C1.68 8.33 0.36 8.66 -1 9 C-1.125 2.25 -1.125 2.25 0 0 Z " fill="#C4443E" transform="translate(30,17)"/>
<path d="M0 0 C0.59167969 0.0721875 1.18335937 0.144375 1.79296875 0.21875 C5.88261722 0.69910023 9.8738531 1.13310151 14 1 C14 1.66 14 2.32 14 3 C9.74199462 4.41933513 5.77088462 4.72651677 1.5625 3 C1.046875 2.67 0.53125 2.34 0 2 C0 1.34 0 0.68 0 0 Z " fill="#A01F19" transform="translate(18,30)"/>
<path d="M0 0 C0.99 0 1.98 0 3 0 C3 2.31 3 4.62 3 7 C2.01 7.33 1.02 7.66 0 8 C0 5.36 0 2.72 0 0 Z " fill="#462725" transform="translate(33,17)"/>
<path d="M0 0 C3.465 1.98 3.465 1.98 7 4 C7 3.34 7 2.68 7 2 C7.66 2.33 8.32 2.66 9 3 C7.625 5 7.625 5 6 7 C5.34 7 4.68 7 4 7 C0 2.52941176 0 2.52941176 0 0 Z " fill="#9F2019" transform="translate(32,33)"/>
<path d="M0 0 C0.99 0.33 1.98 0.66 3 1 C3 1.66 3 2.32 3 3 C0.69 3.33 -1.62 3.66 -4 4 C-2.68 2.68 -1.36 1.36 0 0 Z " fill="#CD2E27" transform="translate(23,14)"/>
<path d="M0 0 C0.33 0 0.66 0 1 0 C1.36923077 6.4 1.36923077 6.4 -0.5 9.4375 C-0.995 9.953125 -1.49 10.46875 -2 11 C-2 6.91621923 -1.19287411 3.87684087 0 0 Z " fill="#B2251E" transform="translate(36,19)"/>
</svg>
