<?xml version="1.0" encoding="UTF-8"?>
<svg version="1.1" xmlns="http://www.w3.org/2000/svg" width="128" height="128">
<path d="M0 0 C42.24 0 84.48 0 128 0 C128 42.24 128 84.48 128 128 C85.76 128 43.52 128 0 128 C0 85.76 0 43.52 0 0 Z " fill="#353232" transform="translate(0,0)"/>
<path d="M0 0 C1.45057065 -0.0052428 2.90113788 -0.01152168 4.35169983 -0.01878357 C7.38363755 -0.02915916 10.41510511 -0.02466825 13.44702148 -0.01000977 C17.31516388 0.00716933 21.18181951 -0.01631886 25.0497961 -0.05149937 C28.0431943 -0.07355646 31.03624131 -0.072012 34.02969551 -0.06373405 C35.4549275 -0.06291896 36.88018643 -0.06969724 38.30534172 -0.08450508 C52.15335516 -0.20634831 52.15335516 -0.20634831 57.64160156 4.06607056 C63.46822572 9.82278928 63.6302638 14.86714886 63.69029236 22.81092834 C63.67981411 24.14739683 63.6684451 25.48385858 63.65625 26.8203125 C63.65640521 28.2084104 63.65789777 29.59650872 63.66065979 30.98460388 C63.66203917 33.88373133 63.64956271 36.78236127 63.62670898 39.68139648 C63.59829838 43.38577295 63.60107471 47.08932545 63.6137991 50.79376316 C63.62077369 53.65666161 63.61294729 56.51937164 63.60054207 59.38224602 C63.59604668 60.74770318 63.59567395 62.1131807 63.59960747 63.4786396 C63.60253756 65.39017216 63.58378885 67.30170024 63.56420898 69.21313477 C63.558806 70.29788589 63.55340302 71.38263702 63.5478363 72.5002594 C62.89920372 77.63026994 60.98781625 80.77473147 57.28515625 84.31640625 C52.52847653 87.74121565 48.96375511 88.81538304 43.11987305 88.84106445 C41.92480637 88.85059647 40.72973969 88.86012848 39.49845886 88.86994934 C38.21506119 88.86903793 36.93166351 88.86812653 35.609375 88.8671875 C34.26804981 88.87107918 32.92672584 88.87541481 31.58540344 88.88017273 C28.77702843 88.88762109 25.96877916 88.88735452 23.16040039 88.88208008 C19.57952642 88.87629793 15.99917181 88.89319213 12.4183836 88.91642475 C9.64808697 88.93123392 6.87791321 88.93202392 4.107584 88.92891502 C2.15126387 88.92967131 0.19496267 88.94349076 -1.76130676 88.95759583 C-9.89901672 88.91551437 -16.1707193 88.51765853 -22.71484375 83.25390625 C-26.36441993 78.63826579 -27.08842833 74.10193692 -27.14624023 68.32080078 C-27.16222763 67.10578888 -27.17821503 65.89077698 -27.19468689 64.63894653 C-27.20004959 63.33883636 -27.20541229 62.0387262 -27.2109375 60.69921875 C-27.21991717 59.33690296 -27.22903923 57.9745881 -27.23829651 56.61227417 C-27.25473862 53.76281345 -27.26247796 50.91346957 -27.26538086 48.06396484 C-27.27076292 44.43015872 -27.30845384 40.79746513 -27.35412502 37.16397285 C-27.38400861 34.35163454 -27.39110681 31.5395607 -27.39210701 28.72707748 C-27.39830438 26.74186087 -27.42771136 24.75675991 -27.45762634 22.77175903 C-27.42141877 15.49586616 -27.06729545 9.9585946 -21.83984375 4.56640625 C-15.4729683 -0.87267369 -8.01994177 -0.03531216 0 0 Z " fill="#D32C24" transform="translate(45.83984375,20.43359375)"/>
<path d="M0 0 C6.80089202 3.49112457 11.78294065 8.80003526 14.34375 16.078125 C15.45102432 24.47394129 14.22593231 31.10724002 9.34375 38.078125 C7.43533902 40.20654046 5.76720787 41.44600031 3.34375 43.078125 C2.498125 43.67625 1.6525 44.274375 0.78125 44.890625 C-5.7729118 47.15478998 -13.58608641 47.41047228 -20.03125 44.578125 C-25.3327822 41.41068415 -29.30282128 36.72613771 -32.09375 31.265625 C-33.74190896 21.92605755 -32.94357708 14.91242953 -27.53125 6.953125 C-20.30537781 -0.99961007 -10.24711127 -3.55635038 0 0 Z " fill="#C12821" transform="translate(74.65625,32.921875)"/>
<path d="M0 0 C6.12526984 4.70450833 11.27733359 10.32733446 13 18 C13.98239214 26.58648512 13.71803914 33.51182038 9.09375 40.94921875 C7.68627451 43.2008655 7.68627451 43.2008655 8 47 C9.27187927 48.72535328 9.27187927 48.72535328 11.0625 50.2421875 C11.69414063 50.83386719 12.32578125 51.42554688 12.9765625 52.03515625 C14.32163899 53.25818912 15.67058864 54.47697629 17.0234375 55.69140625 C21.87372685 60.25463766 21.87372685 60.25463766 22.5625 64.3203125 C22 67 22 67 20 69 C17.16015625 69.4453125 17.16015625 69.4453125 14 69 C11.62109375 66.8046875 11.62109375 66.8046875 9.4375 63.875 C8.674375 62.87597656 7.91125 61.87695312 7.125 60.84765625 C6.42375 59.90792969 5.7225 58.96820313 5 58 C3.98936232 56.76243672 2.9710309 55.53100944 1.9375 54.3125 C1.298125 53.549375 0.65875 52.78625 0 52 C-0.55945313 52.2165625 -1.11890625 52.433125 -1.6953125 52.65625 C-10.80915579 55.82118593 -20.64115806 57.05777167 -29.5625 52.75 C-31.06348778 51.86951861 -32.54656266 50.95693871 -34 50 C-34.928125 49.401875 -35.85625 48.80375 -36.8125 48.1875 C-43.9914684 41.0085316 -46.43484507 33.04222989 -46.43823242 23.1003418 C-46.23505421 15.27126763 -43.55029141 10.86907784 -38.5 5.1875 C-37.675 4.465625 -36.85 3.74375 -36 3 C-35.21625 2.29875 -34.4325 1.5975 -33.625 0.875 C-23.57500326 -6.3035691 -10.70419688 -6.0424298 0 0 Z M-36.5625 12.125 C-40.6492683 17.89046916 -40.64337997 24.12795597 -40 31 C-38.22482338 38.15724077 -34.05634191 42.92860441 -28 47 C-22.21169156 49.85110068 -16.31362935 49.72561854 -10 49 C-2.41613529 46.41660749 1.87034661 41.67181619 5.8125 34.875 C8.04379301 29.04526335 8.08390546 22.3878591 6.19140625 16.47265625 C3.22298492 10.46391411 -1.38114037 6.53546224 -7 3 C-18.66004243 -0.88668081 -29.09149937 2.67117456 -36.5625 12.125 Z " fill="#2C2727" transform="translate(82,30)"/>
<path d="M0 0 C2.13106799 0.95239489 4.18381734 1.95269908 6.21484375 3.1015625 C6.21484375 3.7615625 6.21484375 4.4215625 6.21484375 5.1015625 C7.20484375 5.4315625 8.19484375 5.7615625 9.21484375 6.1015625 C9.70984375 8.5765625 9.70984375 8.5765625 10.21484375 11.1015625 C7.21484375 13.1015625 7.21484375 13.1015625 4.21484375 13.1015625 C3.71984375 12.1115625 3.71984375 12.1115625 3.21484375 11.1015625 C2.88484375 18.0315625 2.55484375 24.9615625 2.21484375 32.1015625 C-1.2889556 30.70004276 -4.05414664 29.43113152 -7.22265625 27.5390625 C-10.74918644 25.53401189 -13.68131878 24.41724231 -17.78515625 24.1015625 C-17.45515625 24.8028125 -17.12515625 25.5040625 -16.78515625 26.2265625 C-15.69471063 29.36159366 -15.63192982 31.80719432 -15.78515625 35.1015625 C-17.43515625 35.1015625 -19.08515625 35.1015625 -20.78515625 35.1015625 C-20.94371094 34.43769531 -21.10226563 33.77382812 -21.265625 33.08984375 C-22.797962 27.29066781 -24.29531773 24.23694008 -28.78515625 20.1015625 C-29.53515625 17.4765625 -29.53515625 17.4765625 -29.78515625 15.1015625 C-30.11515625 14.1115625 -30.44515625 13.1215625 -30.78515625 12.1015625 C-21.75987668 2.80278961 -13.83996676 -4.46450541 0 0 Z " fill="#CA362F" transform="translate(74.78515625,36.8984375)"/>
<path d="M0 0 C0.33 0 0.66 0 1 0 C1.01417969 0.67804687 1.02835938 1.35609375 1.04296875 2.0546875 C1.48458272 10.67212773 3.81238455 17.1231704 9.3125 23.8125 C18.3309092 31.15306563 25.35292802 32.74264008 37 32 C40.45191133 31.26244876 43.71002861 30.27353731 47 29 C61 44.4335512 61 44.4335512 61 47 C63.31 46.34 65.62 45.68 68 45 C68.33 43.35 68.66 41.7 69 40 C70.485 40.99 70.485 40.99 72 42 C72.66 40.68 73.32 39.36 74 38 C74.34989262 42.89849663 73.64852127 45.85065002 71 50 C65.62066712 55.14544884 61.37401231 57.24207548 53.9597168 57.2746582 C52.76465012 57.28419022 51.56958344 57.29372223 50.33830261 57.30354309 C49.05490494 57.30263168 47.77150726 57.30172028 46.44921875 57.30078125 C45.10789356 57.30467293 43.76656959 57.30900856 42.42524719 57.31376648 C39.61687218 57.32121484 36.80862291 57.32094827 34.00024414 57.31567383 C30.41937017 57.30989168 26.83901556 57.32678588 23.25822735 57.3500185 C20.48793072 57.36482767 17.71775696 57.36561767 14.94742775 57.36250877 C12.99110762 57.36326506 11.03480642 57.37708451 9.07853699 57.39118958 C1.10838379 57.34997458 -5.99830239 57.17738875 -12 51.3125 C-12.66 50.549375 -13.32 49.78625 -14 49 C-13.67 48.01 -13.34 47.02 -13 46 C-11.89322917 47.49739583 -10.78645833 48.99479167 -9.6796875 50.4921875 C-5.76968664 54.00209525 -0.7610174 54.24962996 4.27734375 54.24291992 C5.49881104 54.24599655 6.72027832 54.24907318 7.97875977 54.25224304 C9.28514404 54.24505753 10.59152832 54.23787201 11.9375 54.23046875 C13.30460568 54.22927488 14.67171219 54.22882422 16.03881836 54.2290802 C18.89669979 54.22752071 21.754455 54.21927273 24.61230469 54.20581055 C28.26380301 54.18882163 31.91516294 54.18499661 35.56669617 54.18575573 C38.38750514 54.18548296 41.20828425 54.17998466 44.02908325 54.17275429 C46.02646523 54.16805356 48.02385345 54.166298 50.02124023 54.16459656 C51.24270752 54.15821671 52.4641748 54.15183685 53.72265625 54.14526367 C54.79265869 54.14145187 55.86266113 54.13764008 56.96508789 54.13371277 C60.04864295 53.99785688 62.96924756 53.57057157 66 53 C66 52.34 66 51.68 66 51 C64.88625 50.62875 64.88625 50.62875 63.75 50.25 C59.08980814 48.13173097 56.53867105 44.46508283 53.625 40.375 C51.47855639 37.6133337 50.09883852 36.05888252 47.0625 34.25 C43.41657676 33.95237361 41.42118442 34.86347231 38.10546875 36.23828125 C31.21489356 38.73116096 25.17168019 36.63444534 18.5625 34.25 C17.49612305 33.87210327 17.49612305 33.87210327 16.40820312 33.48657227 C11.33155109 31.52663767 11.33155109 31.52663767 9.65234375 28.859375 C9.43707031 28.24578125 9.22179687 27.6321875 9 27 C8.34 26.67 7.68 26.34 7 26 C5.9296875 24.44140625 5.9296875 24.44140625 4.875 22.5625 C4.52179687 21.94503906 4.16859375 21.32757813 3.8046875 20.69140625 C3 19 3 19 3 17 C2.34 17 1.68 17 1 17 C-0.53266582 13.93466836 -0.10276471 10.73245728 -0.0625 7.375 C-0.05798828 6.66859375 -0.05347656 5.9621875 -0.04882812 5.234375 C-0.03703875 3.48954725 -0.01910324 1.744763 0 0 Z " fill="#8D1F19" transform="translate(35,52)"/>
<path d="M0 0 C0 9.57 0 19.14 0 29 C-5.86563579 26.65374568 -11.36187776 23.85003981 -17 21 C-17 16.71 -17 12.42 -17 8 C-13.97265625 6.50260417 -10.9453125 5.00520833 -7.91796875 3.5078125 C-1.12953368 0 -1.12953368 0 0 0 Z " fill="#F7F1F1" transform="translate(77,40)"/>
<path d="M0 0 C4.273016 3.52988279 8.40221355 7.20005742 12.4375 11 C13.30246094 11.804375 14.16742188 12.60875 15.05859375 13.4375 C17 16 17 16 17.41015625 19.1875 C17 22 17 22 15 24 C12.15625 24.4375 12.15625 24.4375 9 24 C6.65625 21.875 6.65625 21.875 4.5 19 C3.73816406 18.00355469 2.97632812 17.00710937 2.19140625 15.98046875 C1.46824219 14.99691406 0.74507813 14.01335937 0 13 C-0.63035156 12.17113281 -1.26070313 11.34226562 -1.91015625 10.48828125 C-3.29053949 8.67061348 -4.65351685 6.84283381 -6 5 C-4.02 3.35 -2.04 1.7 0 0 Z " fill="#252121" transform="translate(87,75)"/>
<path d="M0 0 C6.80089202 3.49112457 11.78294065 8.80003526 14.34375 16.078125 C14.58045122 20.09175437 14.51916891 24.06298112 14.34375 28.078125 C14.01375 28.078125 13.68375 28.078125 13.34375 28.078125 C13.23417969 27.28148438 13.12460938 26.48484375 13.01171875 25.6640625 C11.57571565 15.9083127 11.57571565 15.9083127 6.21875 7.828125 C0.05508064 4.07632626 -7.54320041 3.23970471 -14.65625 4.078125 C-20.7990312 6.20929399 -26.73490723 10.95594299 -30.15625 16.515625 C-31.31751105 22.46708791 -30.6413511 28.16751841 -29.65625 34.078125 C-33.30328463 28.60757306 -33.14911575 23.46745732 -32.65625 17.078125 C-30.4786679 10.08694036 -26.72639366 5.16094761 -20.65625 1.203125 C-14.17830098 -2.12222216 -6.86460492 -2.38242171 0 0 Z " fill="#9D1F19" transform="translate(74.65625,32.921875)"/>
<path d="M0 0 C1.8871875 0.061875 1.8871875 0.061875 3.8125 0.125 C3.80089844 1.10339844 3.78929687 2.08179688 3.77734375 3.08984375 C3.7285409 10.1802013 3.82507435 17.08959222 4.8125 24.125 C3.1625 24.125 1.5125 24.125 -0.1875 24.125 C-0.42533203 23.12919922 -0.42533203 23.12919922 -0.66796875 22.11328125 C-2.19532031 16.18298784 -2.19532031 16.18298784 -5.9375 11.4375 C-8.1875 9.125 -8.1875 9.125 -8.1875 5.4375 C-6.75726709 0.6998535 -4.65273593 -0.15254872 0 0 Z " fill="#F6F0EF" transform="translate(54.1875,47.875)"/>
<path d="M0 0 C0.33 0 0.66 0 1 0 C1.01417969 0.67804687 1.02835938 1.35609375 1.04296875 2.0546875 C1.48458272 10.67212773 3.81238455 17.1231704 9.3125 23.8125 C13.51851023 27.2359967 17.83182714 30.27727571 23 32 C23 32.66 23 33.32 23 34 C28.94 34 34.88 34 41 34 C36.6017047 37.29872148 35.32751127 37.63581245 30.140625 37.48828125 C26.06970335 36.85536433 22.36446584 35.65482765 18.5 34.25 C17.79327148 33.99806885 17.08654297 33.7461377 16.35839844 33.48657227 C11.33452936 31.53291305 11.33452936 31.53291305 9.65625 28.859375 C9.4396875 28.24578125 9.223125 27.6321875 9 27 C8.34 26.67 7.68 26.34 7 26 C5.9296875 24.44140625 5.9296875 24.44140625 4.875 22.5625 C4.52179687 21.94503906 4.16859375 21.32757813 3.8046875 20.69140625 C3 19 3 19 3 17 C2.34 17 1.68 17 1 17 C-0.53266582 13.93466836 -0.10276471 10.73245728 -0.0625 7.375 C-0.05798828 6.66859375 -0.05347656 5.9621875 -0.04882812 5.234375 C-0.03703875 3.48954725 -0.01910324 1.744763 0 0 Z " fill="#A31F19" transform="translate(35,52)"/>
<path d="M0 0 C1.06637695 -0.01740234 1.06637695 -0.01740234 2.15429688 -0.03515625 C7.31521227 -0.00602597 7.31521227 -0.00602597 9.80078125 1.8984375 C10.13464844 2.38570312 10.46851563 2.87296875 10.8125 3.375 C9.513125 3.21 8.21375 3.045 6.875 2.875 C-1.83063757 1.94420856 -7.96904675 1.39482379 -15.26171875 6.95703125 C-20.59410596 11.24976945 -20.59410596 11.24976945 -23.1875 17.375 C-23.43724048 22.53630315 -23.03526989 27.28838068 -22.1875 32.375 C-25.82539101 26.91816349 -25.70411376 21.75250779 -25.1875 15.375 C-24.14895555 11.62544991 -22.34555813 8.6120872 -20.1875 5.375 C-18.2062415 4.65454236 -16.20245907 3.99498741 -14.1875 3.375 C-13.29933594 2.86710937 -12.41117188 2.35921875 -11.49609375 1.8359375 C-7.46496909 0.05596038 -4.3425745 -0.07204271 0 0 Z " fill="#B4231C" transform="translate(67.1875,34.625)"/>
<path d="M0 0 C0.66 0.33 1.32 0.66 2 1 C2.35331232 8.11858906 1.90207694 13.50217895 -1 20 C-1.67735217 21.99640639 -2.34838935 23.99504414 -3 26 C-4.32 25.01 -5.64 24.02 -7 23 C-5.996453 20.99290601 -4.99316435 18.98674141 -3.96484375 16.9921875 C-1.21871282 11.33286064 -0.26165592 6.26665928 0 0 Z " fill="#B4241D" transform="translate(95,53)"/>
<path d="M0 0 C1.5625 1.3125 1.5625 1.3125 2.5625 3.3125 C-0.4075 2.9825 -3.3775 2.6525 -6.4375 2.3125 C-6.4375 2.9725 -6.4375 3.6325 -6.4375 4.3125 C-11.67604718 5.41535204 -17.10092068 5.87879169 -22.4375 5.3125 C-23.0975 4.6525 -23.7575 3.9925 -24.4375 3.3125 C-23.06078125 3.25642578 -23.06078125 3.25642578 -21.65625 3.19921875 C-13.54012549 2.86699046 -13.54012549 2.86699046 -5.8125 0.625 C-2.4375 -0.6875 -2.4375 -0.6875 0 0 Z " fill="#881914" transform="translate(82.4375,81.6875)"/>
<path d="M0 0 C0.99 0.66 1.98 1.32 3 2 C-2.28 2 -7.56 2 -13 2 C-13 2.66 -13 3.32 -13 4 C-16.6678852 5.96189209 -19.87248551 7.39301257 -24 8 C-16.81664862 0.1828235 -10.39390587 -1.06853238 0 0 Z " fill="#801A15" transform="translate(72,32)"/>
<path d="M0 0 C2.31 0 4.62 0 7 0 C7 0.99 7 1.98 7 3 C6.01 3.33 5.02 3.66 4 4 C4.495 4.45375 4.99 4.9075 5.5 5.375 C7 7 7 7 7 9 C2.25 8.25 2.25 8.25 0 6 C-0.125 2.875 -0.125 2.875 0 0 Z " fill="#D98E8B" transform="translate(78,53)"/>
<path d="M0 0 C1 3 1 3 0.22265625 4.98046875 C-0.16019531 5.70878906 -0.54304688 6.43710937 -0.9375 7.1875 C-4.08719487 13.88874735 -3.18985828 19.86085033 -2 27 C-5.63789101 21.54316349 -5.51661376 16.37750779 -5 10 C-3.96145555 6.25044991 -2.15805813 3.2370872 0 0 Z " fill="#A2211A" transform="translate(47,40)"/>
<path d="M0 0 C0 0.33 0 0.66 0 1 C-1.19625 1.185625 -2.3925 1.37125 -3.625 1.5625 C-9.89618844 3.09693973 -12.59160002 7.88740003 -16 13 C-15.54625711 8.12226395 -14.47822112 5.47822112 -11 2 C-6.95658325 -0.58090431 -4.62771261 -1.49720114 0 0 Z " fill="#DC403A" transform="translate(36,22)"/>
<path d="M0 0 C1.14417457 3.82734453 0.54150693 5.31751123 -1 9 C-1.3813074 11.32597511 -1.72460254 13.65912158 -2 16 C-3.32 15.01 -4.64 14.02 -6 13 C-5.71382813 12.43796875 -5.42765625 11.8759375 -5.1328125 11.296875 C-3.98584069 8.97129077 -2.92160206 6.62229799 -1.875 4.25 C-1.52179688 3.45078125 -1.16859375 2.6515625 -0.8046875 1.828125 C-0.53914063 1.22484375 -0.27359375 0.6215625 0 0 Z " fill="#9B1F19" transform="translate(94,63)"/>
<path d="M0 0 C0.66 0.33 1.32 0.66 2 1 C0.39801112 2.46072532 -1.20667116 3.91849716 -2.8125 5.375 C-3.70582031 6.18710937 -4.59914063 6.99921875 -5.51953125 7.8359375 C-8 10 -8 10 -11 12 C-8.84618556 6.71336455 -4.57763162 3.22129633 0 0 Z " fill="#473837" transform="translate(51,29)"/>
<path d="M0 0 C0.33 0 0.66 0 1 0 C1.06058594 0.72445312 1.12117188 1.44890625 1.18359375 2.1953125 C1.61483433 7.17116533 2.07047641 12.08680391 3 17 C2.34 17 1.68 17 1 17 C-0.53266582 13.93466836 -0.10276471 10.73245728 -0.0625 7.375 C-0.05798828 6.66859375 -0.05347656 5.9621875 -0.04882812 5.234375 C-0.03703875 3.48954725 -0.01910324 1.744763 0 0 Z " fill="#B32820" transform="translate(35,52)"/>
<path d="M0 0 C6.75 -0.125 6.75 -0.125 9 1 C9 1.66 9 2.32 9 3 C8.071875 2.835 7.14375 2.67 6.1875 2.5 C3.04378647 1.92251612 3.04378647 1.92251612 0 2 C0 1.34 0 0.68 0 0 Z " fill="#A41E18" transform="translate(76,84)"/>
<path d="M0 0 C1.98 0 3.96 0 6 0 C6.33 0.99 6.66 1.98 7 3 C5.35 2.67 3.7 2.34 2 2 C1.67 2.66 1.34 3.32 1 4 C0.67 2.68 0.34 1.36 0 0 Z " fill="#B32B26" transform="translate(57,61)"/>
</svg>
